<svg version="1.1" id="Layer_1" xmlns="http://www.w3.org/2000/svg" xmlns:xlink="http://www.w3.org/1999/xlink" x="0px" y="0px"
	 width="100%" viewBox="0 0 150 150" enable-background="new 0 0 150 150" xml:space="preserve">
<path fill="#000000" opacity="1.000000" stroke="none" 
	d="
M92.000000,151.000000 
	C61.358486,151.000000 31.216972,151.000000 1.037730,151.000000 
	C1.037730,101.066872 1.037730,51.133701 1.037730,1.100266 
	C50.891285,1.100266 100.782837,1.100266 150.837189,1.100266 
	C150.837189,50.999569 150.837189,100.999741 150.837189,151.000000 
	C131.467392,151.000000 111.983696,151.000000 92.000000,151.000000 
M141.579712,90.896118 
	C146.756058,78.476875 147.080460,66.682465 137.563400,55.868988 
	C135.897247,53.975883 134.135361,51.246071 134.169403,48.928410 
	C134.375961,34.862011 123.611427,21.780670 110.003029,18.702230 
	C105.793381,17.749941 101.384750,18.838438 97.146423,15.077632 
	C84.182869,3.574614 66.913086,4.245786 54.046402,15.316644 
	C52.368073,16.760725 49.785809,17.827148 47.589367,17.888304 
	C31.881823,18.325636 18.319757,31.905777 17.901234,47.665710 
	C17.846231,49.736893 16.996302,52.285698 15.603969,53.743778 
	C4.409901,65.466499 4.122365,85.066917 13.525441,95.311546 
	C15.594319,97.565590 17.710922,100.815125 17.803402,103.671074 
	C18.310299,119.325203 31.063927,133.998230 48.515736,134.083786 
	C50.127880,134.091675 52.131927,134.831039 53.282814,135.932251 
	C66.631676,148.704712 86.506241,147.955536 98.760757,135.898514 
	C99.886230,134.791183 101.940613,134.046432 103.536995,134.090866 
	C116.853630,134.461502 131.070282,122.797600 133.157120,109.767288 
	C133.991959,104.554558 133.981659,98.995659 138.469177,95.024918 
	C139.547501,94.070770 140.248947,92.690659 141.579712,90.896118 
z"/>
<path fill="#3DB135" opacity="1.000000" stroke="none" 
	d="
M141.351715,91.201279 
	C140.248947,92.690659 139.547501,94.070770 138.469177,95.024918 
	C133.981659,98.995659 133.991959,104.554558 133.157120,109.767288 
	C131.070282,122.797600 116.853630,134.461502 103.536995,134.090866 
	C101.940613,134.046432 99.886230,134.791183 98.760757,135.898514 
	C86.506241,147.955536 66.631676,148.704712 53.282814,135.932251 
	C52.131927,134.831039 50.127880,134.091675 48.515736,134.083786 
	C31.063927,133.998230 18.310299,119.325203 17.803402,103.671074 
	C17.710922,100.815125 15.594319,97.565590 13.525441,95.311546 
	C4.122365,85.066917 4.409901,65.466499 15.603969,53.743778 
	C16.996302,52.285698 17.846231,49.736893 17.901234,47.665710 
	C18.319757,31.905777 31.881823,18.325636 47.589367,17.888304 
	C49.785809,17.827148 52.368073,16.760725 54.046402,15.316644 
	C66.913086,4.245786 84.182869,3.574614 97.146423,15.077632 
	C101.384750,18.838438 105.793381,17.749941 110.003029,18.702230 
	C123.611427,21.780670 134.375961,34.862011 134.169403,48.928410 
	C134.135361,51.246071 135.897247,53.975883 137.563400,55.868988 
	C147.080460,66.682465 146.756058,78.476875 141.351715,91.201279 
M31.956259,54.380951 
	C30.399696,56.986305 29.417810,60.328953 27.186258,62.068321 
	C17.939381,69.275711 17.905928,84.102654 27.891819,90.593414 
	C31.201344,92.744568 32.676086,95.908073 31.425058,100.469307 
	C28.709637,110.369720 41.377098,123.249626 51.276615,120.679031 
	C55.687408,119.533691 58.946201,120.695221 61.275692,123.904892 
	C68.790779,134.259521 82.782806,134.794312 90.783180,123.844696 
	C93.116371,120.651398 96.435356,119.617447 100.809677,120.720978 
	C110.324341,123.121262 123.241516,110.342812 120.704437,100.861656 
	C119.425758,96.083191 120.685478,92.795891 124.163177,90.524628 
	C133.536514,84.402962 134.161255,68.669022 124.314339,61.491436 
	C122.067879,59.853966 120.985451,56.101540 120.219421,53.104710 
	C119.528198,50.400581 120.457024,47.303089 119.878197,44.545574 
	C118.184433,36.476582 106.911247,28.363462 99.579872,31.633526 
	C95.878395,33.284515 92.621376,30.991478 90.629967,27.972198 
	C83.720467,17.496300 68.148125,17.772448 61.527115,27.782150 
	C59.451679,30.919806 56.372074,33.005882 52.157997,31.575451 
	C42.757252,28.384459 27.772619,40.620956 31.956259,54.380951 
z"/>
<path fill="#000000" opacity="1.000000" stroke="none" 
	d="
M31.900764,53.974873 
	C27.772619,40.620956 42.757252,28.384459 52.157997,31.575451 
	C56.372074,33.005882 59.451679,30.919806 61.527115,27.782150 
	C68.148125,17.772448 83.720467,17.496300 90.629967,27.972198 
	C92.621376,30.991478 95.878395,33.284515 99.579872,31.633526 
	C106.911247,28.363462 118.184433,36.476582 119.878197,44.545574 
	C120.457024,47.303089 119.528198,50.400581 120.219421,53.104710 
	C120.985451,56.101540 122.067879,59.853966 124.314339,61.491436 
	C134.161255,68.669022 133.536514,84.402962 124.163177,90.524628 
	C120.685478,92.795891 119.425758,96.083191 120.704437,100.861656 
	C123.241516,110.342812 110.324341,123.121262 100.809677,120.720978 
	C96.435356,119.617447 93.116371,120.651398 90.783180,123.844696 
	C82.782806,134.794312 68.790779,134.259521 61.275692,123.904892 
	C58.946201,120.695221 55.687408,119.533691 51.276615,120.679031 
	C41.377098,123.249626 28.709637,110.369720 31.425058,100.469307 
	C32.676086,95.908073 31.201344,92.744568 27.891819,90.593414 
	C17.905928,84.102654 17.939381,69.275711 27.186258,62.068321 
	C29.417810,60.328953 30.399696,56.986305 31.900764,53.974873 
M62.373260,93.224693 
	C58.935665,93.484596 55.500885,93.793144 52.059769,93.992142 
	C47.729881,94.242531 44.326084,97.009682 44.031166,100.627449 
	C43.746223,104.122849 46.870697,107.161278 51.293549,108.017021 
	C60.635979,109.824600 69.965141,111.705139 79.277985,113.659454 
	C84.079361,114.667030 88.282059,112.556343 88.954041,108.575096 
	C89.641716,104.500946 86.583061,100.790413 81.871246,100.022667 
	C80.988342,99.878807 80.085861,99.855103 79.433678,99.797318 
	C82.776329,94.219704 86.017563,88.811310 89.502754,82.995842 
	C92.584457,82.995842 96.245705,83.072899 99.902351,82.976326 
	C104.469902,82.855690 108.034416,79.660583 107.968048,75.909317 
	C107.901466,72.145401 104.348373,69.134468 99.721191,69.016548 
	C96.889954,68.944389 94.046776,69.126564 91.226723,68.934204 
	C90.087822,68.856514 88.399971,68.385620 87.990242,67.574333 
	C86.507416,64.638283 85.461166,61.481747 84.084587,57.988277 
	C89.951248,57.988277 95.280655,58.138599 100.597054,57.940250 
	C104.775391,57.784359 107.365845,55.282295 107.902763,51.204525 
	C108.367844,47.672401 104.721985,44.086880 100.524803,44.057426 
	C84.194092,43.942810 67.861679,43.945309 51.530903,44.054775 
	C47.324047,44.082973 43.923588,47.578186 44.031948,51.157372 
	C44.140499,54.742844 47.579422,57.805851 51.845985,57.975006 
	C54.508286,58.080559 57.180264,57.930107 59.843857,58.017578 
	C65.376015,58.199249 71.809845,63.509323 73.006851,69.001762 
	C66.462967,69.001762 59.972046,68.985275 53.481251,69.006706 
	C47.760517,69.025597 43.860886,72.017670 44.031948,76.206482 
	C44.197708,80.265350 47.901276,82.973312 53.394279,82.992714 
	C59.967659,83.015930 66.541176,82.998192 74.012230,82.998192 
	C70.979095,88.004364 68.136841,91.634743 62.373260,93.224693 
z"/>
<path fill="#3DB135" opacity="1.000000" stroke="none" 
	d="
M62.775879,93.130104 
	C68.136841,91.634743 70.979095,88.004364 74.012230,82.998192 
	C66.541176,82.998192 59.967659,83.015930 53.394279,82.992714 
	C47.901276,82.973312 44.197708,80.265350 44.031948,76.206482 
	C43.860886,72.017670 47.760517,69.025597 53.481251,69.006706 
	C59.972046,68.985275 66.462967,69.001762 73.006851,69.001762 
	C71.809845,63.509323 65.376015,58.199249 59.843857,58.017578 
	C57.180264,57.930107 54.508286,58.080559 51.845985,57.975006 
	C47.579422,57.805851 44.140499,54.742844 44.031948,51.157372 
	C43.923588,47.578186 47.324047,44.082973 51.530903,44.054775 
	C67.861679,43.945309 84.194092,43.942810 100.524803,44.057426 
	C104.721985,44.086880 108.367844,47.672401 107.902763,51.204525 
	C107.365845,55.282295 104.775391,57.784359 100.597054,57.940250 
	C95.280655,58.138599 89.951248,57.988277 84.084587,57.988277 
	C85.461166,61.481747 86.507416,64.638283 87.990242,67.574333 
	C88.399971,68.385620 90.087822,68.856514 91.226723,68.934204 
	C94.046776,69.126564 96.889954,68.944389 99.721191,69.016548 
	C104.348373,69.134468 107.901466,72.145401 107.968048,75.909317 
	C108.034416,79.660583 104.469902,82.855690 99.902351,82.976326 
	C96.245705,83.072899 92.584457,82.995842 89.502754,82.995842 
	C86.017563,88.811310 82.776329,94.219704 79.433678,99.797318 
	C80.085861,99.855103 80.988342,99.878807 81.871246,100.022667 
	C86.583061,100.790413 89.641716,104.500946 88.954041,108.575096 
	C88.282059,112.556343 84.079361,114.667030 79.277985,113.659454 
	C69.965141,111.705139 60.635979,109.824600 51.293549,108.017021 
	C46.870697,107.161278 43.746223,104.122849 44.031166,100.627449 
	C44.326084,97.009682 47.729881,94.242531 52.059769,93.992142 
	C55.500885,93.793144 58.935665,93.484596 62.775879,93.130104 
z"/>
</svg>